HIERARCHY
ROOT Hips
{
	OFFSET 0.000000 91.145912 0.000000
	CHANNELS 6 Xposition Yposition Zposition Xrotation Yrotation Zrotation
	JOINT RightUpLeg
	{
		OFFSET -7.978616 0.020706 -0.002301
		CHANNELS 6 Xposition Yposition Zposition Xrotation Yrotation Zrotation
		JOINT RightLeg
		{
			OFFSET 0.000000 -41.199947 -0.001895
			CHANNELS 6 Xposition Yposition Zposition Xrotation Yrotation Zrotation
			JOINT RightFoot
			{
				OFFSET 0.000000 -40.188824 -0.003193
				CHANNELS 6 Xposition Yposition Zposition Xrotation Yrotation Zrotation
				JOINT RightToeBase
				{
					OFFSET 0.000000 -7.939033 18.143217
					CHANNELS 6 Xposition Yposition Zposition Xrotation Yrotation Zrotation
					End Site
					{
						OFFSET 0.000000 19.804155 0.000000
					}
				}
			}
		}
	}
	JOINT LeftUpLeg
	{
		OFFSET 7.978616 0.018532 -0.002059
		CHANNELS 6 Xposition Yposition Zposition Xrotation Yrotation Zrotation
		JOINT LeftLeg
		{
			OFFSET 0.000000 -41.199947 -0.001895
			CHANNELS 6 Xposition Yposition Zposition Xrotation Yrotation Zrotation
			JOINT LeftFoot
			{
				OFFSET 0.000000 -40.188824 -0.003193
				CHANNELS 6 Xposition Yposition Zposition Xrotation Yrotation Zrotation
				JOINT LeftToeBase
				{
					OFFSET 0.000000 -7.939033 18.143217
					CHANNELS 6 Xposition Yposition Zposition Xrotation Yrotation Zrotation
					End Site
					{
						OFFSET 0.000000 19.804155 0.000000
					}
				}
			}
		}
	}
	JOINT Spine
	{
		OFFSET 0.000000 9.664871 -1.073875
		CHANNELS 6 Xposition Yposition Zposition Xrotation Yrotation Zrotation
		JOINT Spine1
		{
			OFFSET 0.000000 10.672615 0.000000
			CHANNELS 3 Xrotation Yrotation Zrotation
			JOINT Spine2
			{
				OFFSET 0.000000 9.745026 -0.008016
				CHANNELS 6 Xposition Yposition Zposition Xrotation Yrotation Zrotation
				JOINT Spine3
				{
					OFFSET 0.000000 9.734146 -0.008024
					CHANNELS 6 Xposition Yposition Zposition Xrotation Yrotation Zrotation
					JOINT LeftShoulder
					{
						OFFSET 2.982571 7.645615 0.000000
						CHANNELS 6 Xposition Yposition Zposition Xrotation Yrotation Zrotation
						JOINT LeftArm
						{
							OFFSET 14.068447 0.000000 0.000000
							CHANNELS 6 Xposition Yposition Zposition Xrotation Yrotation Zrotation
							JOINT LeftForeArm
							{
								OFFSET 30.140327 0.000000 0.000000
								CHANNELS 6 Xposition Yposition Zposition Xrotation Yrotation Zrotation
								JOINT LeftHand
								{
									OFFSET 24.636414 0.000000 0.000000
									CHANNELS 6 Xposition Yposition Zposition Xrotation Yrotation Zrotation
									End Site
									{
										OFFSET 0.000000 24.636414 0.000000
									}
								}
							}
						}
					}
					JOINT RightShoulder
					{
						OFFSET -2.982571 7.645615 0.000000
						CHANNELS 6 Xposition Yposition Zposition Xrotation Yrotation Zrotation
						JOINT RightArm
						{
							OFFSET -14.068447 0.000000 0.000000
							CHANNELS 6 Xposition Yposition Zposition Xrotation Yrotation Zrotation
							JOINT RightForeArm
							{
								OFFSET -30.140327 0.000000 0.000000
								CHANNELS 6 Xposition Yposition Zposition Xrotation Yrotation Zrotation
								JOINT RightHand
								{
									OFFSET -24.636414 0.000000 0.000000
									CHANNELS 6 Xposition Yposition Zposition Xrotation Yrotation Zrotation
									JOINT Prop1
									{
										OFFSET -9.043953 -1.004883 2.009767
										CHANNELS 6 Xposition Yposition Zposition Xrotation Yrotation Zrotation
										End Site
										{
											OFFSET 0.000000 9.318909 0.000000
										}
									}
								}
							}
						}
					}
					JOINT Neck
					{
						OFFSET 0.000000 13.630920 0.000000
						CHANNELS 6 Xposition Yposition Zposition Xrotation Yrotation Zrotation
						JOINT Head
						{
							OFFSET 0.000000 9.064621 0.017240
							CHANNELS 6 Xposition Yposition Zposition Xrotation Yrotation Zrotation
							End Site
							{
								OFFSET 0.000000 9.064636 0.000000
							}
						}
					}
				}
			}
		}
	}
}
MOTION
Frames: 5
Frame Time: 0.008333
-3.900007 63.773933 79.236687 13.840491 -71.154138 16.683376 -7.978627 0.020704 -0.002299 -56.599759 -4.251904 -37.573796 -0.000006 -41.199936 -0.001894 84.820704 0.583178 -14.967142 -0.000001 -40.188828 -0.003190 -30.515605 -4.195467 10.077367 0.000004 -7.939033 18.143217 0.000000 0.000001 -0.000000 7.978608 0.018531 -0.002057 -56.399269 7.857118 41.567056 -0.000001 -41.199940 -0.001888 75.737051 -6.382460 5.259086 -0.000001 -40.188824 -0.003172 -23.079961 -3.611878 -17.628829 -0.000001 -7.939034 18.143227 -0.000000 -0.000001 0.000000 -0.000008 9.664866 -1.073872 19.344855 1.068671 -6.174264 2.761704 1.002643 -2.609435 0.000005 9.745026 -0.008013 8.582127 1.002917 -2.609307 -0.000006 9.734141 -0.008016 12.265912 0.587556 -2.013362 2.982576 7.645629 0.000000 -6.092416 3.325388 -13.479950 14.068451 -0.000017 -0.000002 -47.452275 16.483314 -36.838058 30.140327 -0.000015 -0.000004 4.540536 -36.370716 -10.164974 24.636421 0.000000 0.000008 7.011549 -8.696470 0.439013 -2.982575 7.645618 -0.000005 3.312458 -5.437573 0.644383 -14.068450 0.000001 0.000001 14.585977 -11.773072 79.738224 -30.140314 0.000011 -0.000005 -12.815915 22.145191 17.186011 -24.636400 0.000005 -0.000008 -9.671309 5.736698 0.704876 -9.043935 -1.004882 2.009770 -2.338958 2.072928 -92.920940 0.000000 13.630914 -0.000002 8.675174 11.443733 -8.923983 -0.000004 9.064607 0.017244 -19.277505 24.631452 -11.070370 
-3.992902 63.515343 79.307487 14.000877 -71.076274 16.670496 -7.978616 0.020705 -0.002299 -56.822406 -4.281175 -37.663145 -0.000005 -41.199947 -0.001898 85.264653 0.464785 -14.949932 -0.000002 -40.188828 -0.003191 -30.699658 -4.208743 10.037522 0.000001 -7.939034 18.143217 -0.000000 0.000000 0.000001 7.978623 0.018531 -0.002057 -56.871686 7.578390 41.884977 -0.000003 -41.199959 -0.001901 76.472348 -6.227431 5.220585 -0.000002 -40.188820 -0.003181 -23.305302 -3.755429 -17.457205 -0.000001 -7.939033 18.143219 -0.000000 0.000002 -0.000000 0.000008 9.664868 -1.073874 19.322294 1.034536 -6.207185 2.752192 0.990250 -2.626961 0.000007 9.745032 -0.008015 8.572639 0.990512 -2.626882 -0.000010 9.734161 -0.008028 12.258785 0.577127 -2.025771 2.982559 7.645608 -0.000007 -6.206013 3.302543 -13.506293 14.068446 0.000001 -0.000009 -46.977717 16.548587 -36.723694 30.140331 0.000001 -0.000008 4.583472 -36.523224 -10.132342 24.636421 0.000024 0.000007 7.103365 -8.731177 0.560030 -2.982577 7.645611 -0.000009 3.205912 -5.436423 0.612860 -14.068459 0.000002 0.000001 14.601821 -11.723816 79.586327 -30.140314 -0.000011 0.000012 -12.850918 21.881517 17.293836 -24.636417 -0.000023 -0.000003 -9.811235 5.595210 0.845453 -9.043960 -1.004880 2.009771 -2.343537 1.908183 -92.811875 -0.000016 13.630924 -0.000005 8.600096 11.487190 -8.969003 -0.000002 9.064622 0.017237 -19.413223 24.735839 -11.120051 
-4.106663 63.277039 79.387337 14.139053 -71.044554 16.645909 -7.978622 0.020707 -0.002300 -56.949854 -4.260088 -37.712575 -0.000001 -41.199936 -0.001898 85.655005 0.326311 -14.888660 0.000001 -40.188824 -0.003192 -30.899697 -4.205166 9.990811 -0.000005 -7.939035 18.143217 0.000000 0.000000 0.000000 7.978617 0.018533 -0.002053 -57.249860 7.292105 42.220357 0.000002 -41.199944 -0.001887 77.173829 -5.989975 5.104876 -0.000006 -40.188828 -0.003203 -23.511272 -3.939901 -17.279836 -0.000020 -7.939031 18.143213 0.000000 0.000003 -0.000000 -0.000006 9.664864 -1.073875 19.270306 0.975465 -6.237112 2.729986 0.966316 -2.645408 0.000010 9.745030 -0.008022 8.550435 0.966585 -2.645361 0.000001 9.734142 -0.008020 12.242144 0.557984 -2.038145 2.982571 7.645622 0.000006 -6.283518 3.281054 -13.503199 14.068443 0.000018 -0.000004 -46.499535 16.740124 -36.554718 30.140333 -0.000001 0.000007 4.643387 -36.683314 -10.076449 24.636414 0.000006 0.000004 7.193203 -8.724397 0.727578 -2.982570 7.645620 0.000008 3.149288 -5.442023 0.605474 -14.068447 -0.000002 -0.000006 14.520466 -11.656819 79.438440 -30.140316 -0.000017 -0.000001 -12.893593 21.584781 17.304520 -24.636400 -0.000005 0.000002 -9.934579 5.426972 1.011930 -9.043947 -1.004886 2.009763 -2.347836 1.699627 -92.703350 -0.000006 13.630917 0.000008 8.573784 11.561439 -9.049381 -0.000003 9.064624 0.017237 -19.448668 24.907402 -11.232242 
-4.236372 63.059654 79.477257 14.266103 -71.047518 16.615893 -7.978620 0.020706 -0.002304 -57.002057 -4.212216 -37.729545 0.000005 -41.199940 -0.001894 85.990716 0.183644 -14.801191 0.000006 -40.188820 -0.003190 -31.108127 -4.197579 9.935577 0.000002 -7.939033 18.143219 0.000000 0.000001 -0.000000 7.978611 0.018532 -0.002060 -57.559316 7.009477 42.563068 -0.000000 -41.199947 -0.001888 77.847409 -5.704194 4.943836 -0.000005 -40.188824 -0.003195 -23.699848 -4.138056 -17.088133 0.000002 -7.939034 18.143215 -0.000000 -0.000001 -0.000001 0.000005 9.664879 -1.073877 19.194445 0.898529 -6.260908 2.697439 0.933719 -2.662760 -0.000009 9.745035 -0.008015 8.517893 0.934006 -2.662720 0.000009 9.734149 -0.008020 12.217795 0.532406 -2.049135 2.982572 7.645612 -0.000000 -6.329907 3.255027 -13.477032 14.068448 0.000017 0.000007 -46.006269 17.025041 -36.356923 30.140320 -0.000014 0.000000 4.724613 -36.834739 -9.986927 24.636417 0.000004 -0.000003 7.281776 -8.688778 0.924997 -2.982569 7.645613 0.000002 3.128539 -5.456492 0.614469 -14.068458 0.000002 -0.000000 14.363428 -11.574421 79.295580 -30.140331 0.000002 -0.000014 -12.948224 21.260349 17.243692 -24.636412 0.000017 -0.000002 -10.046845 5.236377 1.203213 -9.043943 -1.004864 2.009761 -2.353681 1.460118 -92.593241 0.000001 13.630919 -0.000000 8.581885 11.658496 -9.151974 0.000008 9.064616 0.017248 -19.413802 25.126890 -11.383303 
-4.375230 62.864304 79.580048 14.408081 -71.072237 16.601162 -7.978624 0.020704 -0.002299 -57.003065 -4.155989 -37.720157 0.000001 -41.199944 -0.001896 86.269073 0.045191 -14.702238 0.000002 -40.188824 -0.003193 -31.312644 -4.194034 9.867009 -0.000000 -7.939035 18.143217 -0.000001 -0.000001 -0.000002 7.978610 0.018534 -0.002058 -57.825966 6.734842 42.899762 -0.000010 -41.199940 -0.001888 78.499699 -5.396255 4.758858 0.000004 -40.188824 -0.003194 -23.872502 -4.326774 -16.871906 0.000006 -7.939032 18.143221 0.000000 0.000003 -0.000000 -0.000005 9.664874 -1.073874 19.098898 0.808912 -6.276486 2.656330 0.894592 -2.677624 0.000004 9.745031 -0.008008 8.476776 0.894897 -2.677574 0.000001 9.734150 -0.008019 12.187034 0.502067 -2.057834 2.982580 7.645629 0.000002 -6.343857 3.218643 -13.434594 14.068444 0.000002 -0.000005 -45.490484 17.379679 -36.152686 30.140333 -0.000003 -0.000007 4.832568 -36.956692 -9.851415 24.636410 0.000015 -0.000001 7.371204 -8.636887 1.136959 -2.982566 7.645618 0.000000 3.128716 -5.479635 0.634147 -14.068424 0.000001 0.000005 14.149288 -11.480529 79.158641 -30.140324 -0.000002 0.000002 -13.010365 20.912359 17.135126 -24.636423 -0.000007 0.000003 -10.150605 5.041364 1.412590 -9.043959 -1.004881 2.009762 -2.363780 1.218095 -92.483814 0.000005 13.630938 -0.000007 8.607061 11.768253 -9.262437 -0.000001 9.064613 0.017238 -19.344603 25.371076 -11.547562 
